<svg width="36" height="46" viewBox="0 0 36 46" fill="none" xmlns="http://www.w3.org/2000/svg">
<path d="M21.2727 29.4545C21.2727 31.262 19.8075 32.7273 18 32.7273C16.1925 32.7273 14.7273 31.262 14.7273 29.4545C14.7273 27.6471 16.1925 26.1818 18 26.1818C19.8075 26.1818 21.2727 27.6471 21.2727 29.4545ZM8.18182 13.0909V9.81818C8.18182 4.39575 12.5776 0 18 0C23.4224 0 27.8182 4.39575 27.8182 9.81818V13.0909H30.2727C33.4358 13.0909 36 15.6551 36 18.8182V40.0909C36 43.254 33.4358 45.8182 30.2727 45.8182H5.72727C2.56419 45.8182 0 43.254 0 40.0909V18.8182C0 15.6551 2.56419 13.0909 5.72727 13.0909H8.18182ZM11.4545 9.81818V13.0909H24.5455V9.81818C24.5455 6.20323 21.615 3.27273 18 3.27273C14.385 3.27273 11.4545 6.20323 11.4545 9.81818ZM5.72727 16.3636C4.37167 16.3636 3.27273 17.4626 3.27273 18.8182V40.0909C3.27273 41.4465 4.37167 42.5455 5.72727 42.5455H30.2727C31.6283 42.5455 32.7273 41.4465 32.7273 40.0909V18.8182C32.7273 17.4626 31.6283 16.3636 30.2727 16.3636H5.72727Z" fill="white"/>
</svg>
