<svg width="14" height="14" viewBox="0 0 14 14" fill="none" xmlns="http://www.w3.org/2000/svg">
<path d="M11.0833 4.08575C11.0833 4.73142 10.5599 5.25483 9.91424 5.25483C9.26857 5.25483 8.74516 4.73142 8.74516 4.08575C8.74516 3.44008 9.26857 2.91667 9.91424 2.91667C10.5599 2.91667 11.0833 3.44008 11.0833 4.08575ZM0 2.91667C0 1.30584 1.30584 0 2.91667 0H11.0833C12.6942 0 14 1.30584 14 2.91667V11.0833C14 12.6942 12.6942 14 11.0833 14H2.91667C1.30584 14 0 12.6942 0 11.0833V2.91667ZM2.91667 1.16667C1.95017 1.16667 1.16667 1.95017 1.16667 2.91667V11.0833C1.16667 11.3535 1.2279 11.6094 1.33724 11.8379L5.59762 7.57749C6.37216 6.80295 7.62793 6.80295 8.40247 7.57749L12.6628 11.8378C12.7721 11.6094 12.8333 11.3535 12.8333 11.0833V2.91667C12.8333 1.95017 12.0498 1.16667 11.0833 1.16667H2.91667ZM11.8378 12.6628L7.57751 8.40245C7.25859 8.08352 6.7415 8.08352 6.42257 8.40244L2.16221 12.6628C2.39066 12.7721 2.64651 12.8333 2.91667 12.8333H11.0833C11.3535 12.8333 11.6094 12.7721 11.8378 12.6628Z" fill="white"/>
</svg>
