<svg width="25" height="22" viewBox="0 0 25 22" fill="none" xmlns="http://www.w3.org/2000/svg">
<path fill-rule="evenodd" clip-rule="evenodd" d="M3.07667 3.06892L4.26039 9.87531H11.5642C12.1855 9.87531 12.6892 10.379 12.6892 11.0003C12.6892 11.6216 12.1855 12.1253 11.5642 12.1253H4.26039L3.07667 18.9316L21.5832 11.0003L3.07667 3.06892ZM2.17227 11.0003L0.78466 3.02155C0.672483 2.37654 0.881196 1.71727 1.34414 1.25433C1.92582 0.672657 2.80304 0.503712 3.55914 0.827757L23.6627 9.44355C24.2853 9.71044 24.6891 10.3228 24.6891 11.0003C24.6891 11.6778 24.2853 12.2902 23.6627 12.5571L3.55914 21.1728C2.80304 21.4969 1.92582 21.3279 1.34414 20.7463C0.881196 20.2833 0.672483 19.624 0.78466 18.979L2.17227 11.0003Z" fill="#BDBDBD"/>
</svg>
