<svg width="19" height="14" viewBox="0 0 19 14" fill="none" xmlns="http://www.w3.org/2000/svg">
<path d="M10.9667 0C12.6419 0 14 1.35807 14 3.03333V3.1948L17.6063 1.03133C18.0729 0.751206 18.6667 1.08727 18.6667 1.63147V12.3667C18.6667 12.9108 18.0731 13.2469 17.6065 12.9669L14 10.8033V10.9667C14 12.6419 12.6419 14 10.9667 14H3.03333C1.35807 14 0 12.6419 0 10.9667V3.03333C0 1.35807 1.35807 0 3.03333 0H10.9667ZM10.9667 1.4H3.03333C2.13127 1.4 1.4 2.13127 1.4 3.03333V10.9667C1.4 11.8687 2.13127 12.6 3.03333 12.6H10.9667C11.8687 12.6 12.6 11.8687 12.6 10.9667V3.03333C12.6 2.13127 11.8687 1.4 10.9667 1.4ZM17.2667 2.86823L14 4.82953V9.17033L17.2667 11.1303V2.86823Z" fill="white"/>
</svg>
